/* XPM */
/****************************************************************************
**
** Copyright (C) 1992-2007 Trolltech ASA. All rights reserved.
**
** This file contains the Qt logo icon, which was taken from qmessagebox.cpp
** (which is part of the QtGui module of the Qt Toolkit).
**
** This file may be used under the terms of the GNU General Public
** License version 2.0 as published by the Free Software Foundation
** and appearing in the file COPYING included in the packaging of
** this file.  Please review the following information to ensure GNU
** General Public Licensing requirements will be met:
** http://trolltech.com/products/qt/licenses/licensing/opensource/
**
** If you are unsure which license is appropriate for your use, please
** review the following information:
** http://trolltech.com/products/qt/licenses/licensing/licensingoverview
** or contact the sales department at sales@trolltech.com.
**
** In addition, as a special exception, Trolltech gives you certain
** additional rights. These rights are described in the Trolltech GPL
** Exception version 1.0, which can be found at
** http://www.trolltech.com/products/qt/gplexception/
**
** In addition, as a special exception, Trolltech, as the sole copyright
** holder for Qt Designer, grants users of the Qt/Eclipse Integration
** plug-in the right for the Qt/Eclipse Integration to link to
** functionality provided by Qt Designer and its related libraries.
**
** Trolltech reserves all rights not expressly granted herein.
** 
** Trolltech ASA (c) 2007
**
** This file is provided AS IS with NO WARRANTY OF ANY KIND, INCLUDING THE
** WARRANTY OF DESIGN, MERCHANTABILITY AND FITNESS FOR A PARTICULAR PURPOSE.
**
****************************************************************************/


static const char * const qtlogo_xpm[] = {
	/* width height ncolors chars_per_pixel */
	"50 50 17 1",
 /* colors */
 "  c #000000",
 ". c #495808",
 "X c #2A3304",
 "o c #242B04",
 "O c #030401",
 "+ c #9EC011",
 "@ c #93B310",
 "# c #748E0C",
 "$ c #A2C511",
 "% c #8BA90E",
 "& c #99BA10",
 "* c #060701",
 "= c #181D02",
 "- c #212804",
 "; c #61770A",
 ": c #0B0D01",
 "/ c None",
 /* pixels */
 "/$$$$$$$$$$$$$$$$$$$$$$$$$$$$$$$$$$$$$$$$$$$$$$$$/",
 "$$$$$$$$$$$$$$$$$$$$$$$$$$$$$$$$$$$$$$$$$$$$$$$$$$",
 "$$$$$$$$$$$$$$$$$$$$$$$$$$$$$$$$$$$$$$$$$$$$$$$$$$",
 "$$$$$$$$$$$$$$$$$$$$$$$$$$$$$$$$$$$$$$$$$$$$$$$$$$",
 "$$$$$$$$$$$$$$$$$$$$$$$$$$$$$$$$$$$$$$$$$$$$$$$$$$",
 "$$$$$$$$$$$$$$$$$$$$$$$$$$$$$$$$$$$$$$$$$$$$$$$$$$",
 "$$$$$$$$$$$$$$$$$$$$$$$+++$$$$$$$$$$$$$$$$$$$$$$$$",
 "$$$$$$$$$$$$$$$$$$$@;.o=::=o.;@$$$$$$$$$$$$$$$$$$$",
 "$$$$$$$$$$$$$$$$+#X*         **X#+$$$$$$$$$$$$$$$$",
 "$$$$$$$$$$$$$$$#oO*         O  **o#+$$$$$$$$$$$$$$",
 "$$$$$$$$$$$$$&.* OO              O*.&$$$$$$$$$$$$$",
 "$$$$$$$$$$$$@XOO            * OO    X&$$$$$$$$$$$$",
 "$$$$$$$$$$$@XO OO  O  **:::OOO OOO   X@$$$$$$$$$$$",
 "$$$$$$$$$$&XO      O-;#@++@%.oOO      X&$$$$$$$$$$",
 "$$$$$$$$$$.O  :  *-#+$$$$$$$$+#- : O O*.$$$$$$$$$$",
 "$$$$$$$$$#*OO  O*.&$$$$$$$$$$$$+.OOOO **#$$$$$$$$$",
 "$$$$$$$$+-OO O *;$$$$$$$$$$$&$$$$;*     o+$$$$$$$$",
 "$$$$$$$$#O*  O .+$$$$$$$$$$@X;$$$+.O    *#$$$$$$$$",
 "$$$$$$$$X*    -&$$$$$$$$$$@- :;$$$&-    OX$$$$$$$$",
 "$$$$$$$@*O  *O#$$$$$$$$$$@oOO**;$$$#    O*%$$$$$$$",
 "$$$$$$$;     -+$$$$$$$$$@o O OO ;+$$-O   *;$$$$$$$",
 "$$$$$$$.     ;$$$$$$$$$@-OO OO  X&$$;O    .$$$$$$$",
 "$$$$$$$o    *#$$$$$$$$@o  O O O-@$$$#O   *o$$$$$$$",
 "$$$$$$+=    *@$$$$$$$@o* OO   -@$$$$&:    =$$$$$$$",
 "$$$$$$+:    :+$$$$$$@-      *-@$$$$$$:    :+$$$$$$",
 "$$$$$$+:    :+$$$$$@o* O    *-@$$$$$$:    :+$$$$$$",
 "$$$$$$$=    :@$$$$@o*OOO      -@$$$$@:    =+$$$$$$",
 "$$$$$$$-    O%$$$@o* O O    O O-@$$$#*   OX$$$$$$$",
 "$$$$$$$. O *O;$$&o O*O* *O      -@$$;    O.$$$$$$$",
 "$$$$$$$;*   Oo+$$;O*O:OO--      Oo@+=    *;$$$$$$$",
 "$$$$$$$@*  O O#$$$;*OOOo@@-O     Oo;O*  **@$$$$$$$",
 "$$$$$$$$X* OOO-+$$$;O o@$$@-    O O     OX$$$$$$$$",
 "$$$$$$$$#*  * O.$$$$;X@$$$$@-O O        O#$$$$$$$$",
 "$$$$$$$$+oO O OO.+$$+&$$$$$$@-O         o+$$$$$$$$",
 "$$$$$$$$$#*    **.&$$$$$$$$$$@o      OO:#$$$$$$$$$",
 "$$$$$$$$$+.   O* O-#+$$$$$$$$+;O    OOO:@$$$$$$$$$",
 "$$$$$$$$$$&X  *O    -;#@++@#;=O    O    -@$$$$$$$$",
 "$$$$$$$$$$$&X O     O*O::::O      OO    Oo@$$$$$$$",
 "$$$$$$$$$$$$@XOO                  OO    O*X+$$$$$$",
 "$$$$$$$$$$$$$&.*       **  O      ::    *:#$$$$$$$",
 "$$$$$$$$$$$$$$$#o*OO       O    Oo#@-OOO=#$$$$$$$$",
 "$$$$$$$$$$$$$$$$+#X:* *     O**X#+$$@-*:#$$$$$$$$$",
 "$$$$$$$$$$$$$$$$$$$%;.o=::=o.#@$$$$$$@X#$$$$$$$$$$",
 "$$$$$$$$$$$$$$$$$$$$$$$$+++$$$$$$$$$$$+$$$$$$$$$$$",
 "$$$$$$$$$$$$$$$$$$$$$$$$$$$$$$$$$$$$$$$$$$$$$$$$$$",
 "$$$$$$$$$$$$$$$$$$$$$$$$$$$$$$$$$$$$$$$$$$$$$$$$$$",
 "$$$$$$$$$$$$$$$$$$$$$$$$$$$$$$$$$$$$$$$$$$$$$$$$$$",
 "$$$$$$$$$$$$$$$$$$$$$$$$$$$$$$$$$$$$$$$$$$$$$$$$$$",
 "$$$$$$$$$$$$$$$$$$$$$$$$$$$$$$$$$$$$$$$$$$$$$$$$$$",
 "/$$$$$$$$$$$$$$$$$$$$$$$$$$$$$$$$$$$$$$$$$$$$$$$$/",
};
